<svg version="1.1" id="Capa_1" xmlns="http://www.w3.org/2000/svg" xmlns:xlink="http://www.w3.org/1999/xlink" x="0px" y="0px"
	 width="133.254px" height="133.254px" viewBox="0 0 133.254 133.254" style="enable-background:new 0 0 133.254 133.254;"
	 xml:space="preserve">
<g>
	<path d="M78.799,111.705l9.511,17.839l-6.95,3.71l-10.801-20.247v14.949h-7.87v-14.949l-10.797,20.247l-6.955-3.71l9.516-17.839
		H47.06v-7.869h39.127v7.869H78.799z M100.091,8.859v93.007H33.164V8.864L100.091,8.859L100.091,8.859z M41.043,16.733v73.533
		c1.921-6.304,5.475-14.391,11.532-16.34c0,0-7.689,21.583,24.872,2.553c0,0,11.672-6.547,14.771,3.544v-63.29H41.043z
		 M57.089,56.348c-12.411-16.624-4.095-25.018,2.213-26.572C77.95,25.176,72.65,53.658,73.305,62.941
		c1.259,17.355,13.177,10.087,16.51,6.444c4.416-4.824-3.437-15.313-4.077-20.714c-4.02-34.397-25.611-25.987-25.611-25.987
		c-24.156,5.492-15.088,38.151-6.583,46.1C63.192,77.79,59.36,59.39,57.089,56.348z M81.064,0H52.192v7.874h28.872V0z"/>
</g>
</svg>